<mxfile host="www.draw.io" modified="2020-02-25T21:58:33.174Z" agent="Mozilla/5.0 (Windows NT 10.0; Win64; x64) AppleWebKit/537.36 (KHTML, like Gecko) Chrome/79.0.3945.130 Safari/537.36" etag="No3InRgbml7zR5puRP4P" version="12.7.6" type="github">
  <diagram id="PW5k2R6BRsszjyGse_dW" name="페이지-1">
    <mxGraphModel dx="965" dy="631" grid="1" gridSize="10" guides="1" tooltips="1" connect="1" arrows="1" fold="1" page="1" pageScale="1" pageWidth="827" pageHeight="1169" math="0" shadow="0">
      <root>
        <mxCell id="0" />
        <mxCell id="1" parent="0" />
        <mxCell id="6ZqL_29RhyfrlqsAm3sB-3" value="" style="edgeStyle=orthogonalEdgeStyle;rounded=0;orthogonalLoop=1;jettySize=auto;html=1;" parent="1" source="6ZqL_29RhyfrlqsAm3sB-1" edge="1">
          <mxGeometry relative="1" as="geometry">
            <mxPoint x="150" y="130" as="targetPoint" />
          </mxGeometry>
        </mxCell>
        <mxCell id="6ZqL_29RhyfrlqsAm3sB-1" value="시작" style="ellipse;whiteSpace=wrap;html=1;" parent="1" vertex="1">
          <mxGeometry x="90" y="20" width="120" height="80" as="geometry" />
        </mxCell>
        <mxCell id="6ZqL_29RhyfrlqsAm3sB-6" value="" style="edgeStyle=orthogonalEdgeStyle;rounded=0;orthogonalLoop=1;jettySize=auto;html=1;" parent="1" source="6ZqL_29RhyfrlqsAm3sB-4" target="6ZqL_29RhyfrlqsAm3sB-5" edge="1">
          <mxGeometry relative="1" as="geometry" />
        </mxCell>
        <mxCell id="6ZqL_29RhyfrlqsAm3sB-4" value="int score" style="shape=parallelogram;perimeter=parallelogramPerimeter;whiteSpace=wrap;html=1;" parent="1" vertex="1">
          <mxGeometry x="90" y="130" width="120" height="60" as="geometry" />
        </mxCell>
        <mxCell id="6ZqL_29RhyfrlqsAm3sB-8" value="NO" style="edgeStyle=orthogonalEdgeStyle;rounded=0;orthogonalLoop=1;jettySize=auto;html=1;entryX=1;entryY=0.5;entryDx=0;entryDy=0;" parent="1" source="6ZqL_29RhyfrlqsAm3sB-5" target="6ZqL_29RhyfrlqsAm3sB-4" edge="1">
          <mxGeometry relative="1" as="geometry">
            <mxPoint x="270" y="260" as="targetPoint" />
            <Array as="points">
              <mxPoint x="230" y="260" />
              <mxPoint x="230" y="160" />
            </Array>
          </mxGeometry>
        </mxCell>
        <mxCell id="6ZqL_29RhyfrlqsAm3sB-10" value="YES" style="edgeStyle=orthogonalEdgeStyle;rounded=0;orthogonalLoop=1;jettySize=auto;html=1;" parent="1" source="6ZqL_29RhyfrlqsAm3sB-5" target="6ZqL_29RhyfrlqsAm3sB-9" edge="1">
          <mxGeometry relative="1" as="geometry" />
        </mxCell>
        <mxCell id="6ZqL_29RhyfrlqsAm3sB-5" value="0&amp;lt;= score &amp;lt;=100" style="rhombus;whiteSpace=wrap;html=1;" parent="1" vertex="1">
          <mxGeometry x="80" y="220" width="130" height="80" as="geometry" />
        </mxCell>
        <mxCell id="6ZqL_29RhyfrlqsAm3sB-12" value="NO" style="edgeStyle=orthogonalEdgeStyle;rounded=0;orthogonalLoop=1;jettySize=auto;html=1;" parent="1" source="6ZqL_29RhyfrlqsAm3sB-9" target="6ZqL_29RhyfrlqsAm3sB-11" edge="1">
          <mxGeometry relative="1" as="geometry" />
        </mxCell>
        <mxCell id="6ZqL_29RhyfrlqsAm3sB-26" value="YES" style="edgeStyle=orthogonalEdgeStyle;rounded=0;orthogonalLoop=1;jettySize=auto;html=1;exitX=0.5;exitY=1;exitDx=0;exitDy=0;" parent="1" source="6ZqL_29RhyfrlqsAm3sB-9" target="6ZqL_29RhyfrlqsAm3sB-19" edge="1">
          <mxGeometry relative="1" as="geometry" />
        </mxCell>
        <mxCell id="6ZqL_29RhyfrlqsAm3sB-9" value="score &amp;lt;= 59" style="rhombus;whiteSpace=wrap;html=1;" parent="1" vertex="1">
          <mxGeometry x="80" y="330" width="130" height="80" as="geometry" />
        </mxCell>
        <mxCell id="6ZqL_29RhyfrlqsAm3sB-14" value="NO" style="edgeStyle=orthogonalEdgeStyle;rounded=0;orthogonalLoop=1;jettySize=auto;html=1;" parent="1" source="6ZqL_29RhyfrlqsAm3sB-11" target="6ZqL_29RhyfrlqsAm3sB-13" edge="1">
          <mxGeometry relative="1" as="geometry" />
        </mxCell>
        <mxCell id="6ZqL_29RhyfrlqsAm3sB-25" value="YES" style="edgeStyle=orthogonalEdgeStyle;rounded=0;orthogonalLoop=1;jettySize=auto;html=1;exitX=0.5;exitY=1;exitDx=0;exitDy=0;entryX=0.5;entryY=0;entryDx=0;entryDy=0;" parent="1" source="6ZqL_29RhyfrlqsAm3sB-11" target="6ZqL_29RhyfrlqsAm3sB-20" edge="1">
          <mxGeometry relative="1" as="geometry" />
        </mxCell>
        <mxCell id="6ZqL_29RhyfrlqsAm3sB-11" value="score &amp;lt;= 69" style="rhombus;whiteSpace=wrap;html=1;" parent="1" vertex="1">
          <mxGeometry x="230" y="430" width="80" height="80" as="geometry" />
        </mxCell>
        <mxCell id="6ZqL_29RhyfrlqsAm3sB-16" value="NO" style="edgeStyle=orthogonalEdgeStyle;rounded=0;orthogonalLoop=1;jettySize=auto;html=1;" parent="1" source="6ZqL_29RhyfrlqsAm3sB-13" edge="1">
          <mxGeometry relative="1" as="geometry">
            <mxPoint x="490" y="630" as="targetPoint" />
          </mxGeometry>
        </mxCell>
        <mxCell id="6ZqL_29RhyfrlqsAm3sB-24" value="YES" style="edgeStyle=orthogonalEdgeStyle;rounded=0;orthogonalLoop=1;jettySize=auto;html=1;" parent="1" source="6ZqL_29RhyfrlqsAm3sB-13" target="6ZqL_29RhyfrlqsAm3sB-21" edge="1">
          <mxGeometry relative="1" as="geometry" />
        </mxCell>
        <mxCell id="6ZqL_29RhyfrlqsAm3sB-13" value="score &amp;lt;= 79" style="rhombus;whiteSpace=wrap;html=1;" parent="1" vertex="1">
          <mxGeometry x="340" y="540" width="80" height="80" as="geometry" />
        </mxCell>
        <mxCell id="6ZqL_29RhyfrlqsAm3sB-18" value="NO" style="edgeStyle=orthogonalEdgeStyle;rounded=0;orthogonalLoop=1;jettySize=auto;html=1;exitX=1;exitY=0.5;exitDx=0;exitDy=0;" parent="1" source="6ZqL_29RhyfrlqsAm3sB-15" target="6ZqL_29RhyfrlqsAm3sB-17" edge="1">
          <mxGeometry relative="1" as="geometry" />
        </mxCell>
        <mxCell id="6ZqL_29RhyfrlqsAm3sB-23" value="YES" style="edgeStyle=orthogonalEdgeStyle;rounded=0;orthogonalLoop=1;jettySize=auto;html=1;" parent="1" source="6ZqL_29RhyfrlqsAm3sB-15" target="6ZqL_29RhyfrlqsAm3sB-22" edge="1">
          <mxGeometry relative="1" as="geometry" />
        </mxCell>
        <mxCell id="6ZqL_29RhyfrlqsAm3sB-15" value="score &amp;lt;= 89" style="rhombus;whiteSpace=wrap;html=1;" parent="1" vertex="1">
          <mxGeometry x="450" y="630" width="80" height="80" as="geometry" />
        </mxCell>
        <mxCell id="6ZqL_29RhyfrlqsAm3sB-32" style="edgeStyle=orthogonalEdgeStyle;rounded=0;orthogonalLoop=1;jettySize=auto;html=1;entryX=0.5;entryY=0;entryDx=0;entryDy=0;" parent="1" source="6ZqL_29RhyfrlqsAm3sB-17" target="6ZqL_29RhyfrlqsAm3sB-27" edge="1">
          <mxGeometry relative="1" as="geometry">
            <Array as="points">
              <mxPoint x="630" y="870" />
              <mxPoint x="390" y="870" />
            </Array>
          </mxGeometry>
        </mxCell>
        <mxCell id="6ZqL_29RhyfrlqsAm3sB-17" value="A" style="shape=document;whiteSpace=wrap;html=1;boundedLbl=1;" parent="1" vertex="1">
          <mxGeometry x="570" y="720" width="120" height="80" as="geometry" />
        </mxCell>
        <mxCell id="6ZqL_29RhyfrlqsAm3sB-28" style="edgeStyle=orthogonalEdgeStyle;rounded=0;orthogonalLoop=1;jettySize=auto;html=1;" parent="1" source="6ZqL_29RhyfrlqsAm3sB-19" target="6ZqL_29RhyfrlqsAm3sB-27" edge="1">
          <mxGeometry relative="1" as="geometry">
            <Array as="points">
              <mxPoint x="150" y="870" />
              <mxPoint x="390" y="870" />
            </Array>
          </mxGeometry>
        </mxCell>
        <mxCell id="6ZqL_29RhyfrlqsAm3sB-19" value="F" style="shape=document;whiteSpace=wrap;html=1;boundedLbl=1;" parent="1" vertex="1">
          <mxGeometry x="90" y="480" width="120" height="80" as="geometry" />
        </mxCell>
        <mxCell id="6ZqL_29RhyfrlqsAm3sB-29" style="edgeStyle=orthogonalEdgeStyle;rounded=0;orthogonalLoop=1;jettySize=auto;html=1;entryX=0.5;entryY=0;entryDx=0;entryDy=0;" parent="1" source="6ZqL_29RhyfrlqsAm3sB-20" target="6ZqL_29RhyfrlqsAm3sB-27" edge="1">
          <mxGeometry relative="1" as="geometry">
            <mxPoint x="390" y="900" as="targetPoint" />
            <Array as="points">
              <mxPoint x="270" y="870" />
              <mxPoint x="390" y="870" />
            </Array>
          </mxGeometry>
        </mxCell>
        <mxCell id="6ZqL_29RhyfrlqsAm3sB-20" value="D" style="shape=document;whiteSpace=wrap;html=1;boundedLbl=1;" parent="1" vertex="1">
          <mxGeometry x="210" y="585" width="120" height="80" as="geometry" />
        </mxCell>
        <mxCell id="6ZqL_29RhyfrlqsAm3sB-30" style="edgeStyle=orthogonalEdgeStyle;rounded=0;orthogonalLoop=1;jettySize=auto;html=1;entryX=0.5;entryY=0;entryDx=0;entryDy=0;" parent="1" source="6ZqL_29RhyfrlqsAm3sB-21" target="6ZqL_29RhyfrlqsAm3sB-27" edge="1">
          <mxGeometry relative="1" as="geometry">
            <Array as="points">
              <mxPoint x="380" y="870" />
              <mxPoint x="390" y="870" />
            </Array>
          </mxGeometry>
        </mxCell>
        <mxCell id="6ZqL_29RhyfrlqsAm3sB-21" value="C" style="shape=document;whiteSpace=wrap;html=1;boundedLbl=1;" parent="1" vertex="1">
          <mxGeometry x="320" y="680" width="120" height="80" as="geometry" />
        </mxCell>
        <mxCell id="6ZqL_29RhyfrlqsAm3sB-31" style="edgeStyle=orthogonalEdgeStyle;rounded=0;orthogonalLoop=1;jettySize=auto;html=1;" parent="1" source="6ZqL_29RhyfrlqsAm3sB-22" target="6ZqL_29RhyfrlqsAm3sB-27" edge="1">
          <mxGeometry relative="1" as="geometry">
            <Array as="points">
              <mxPoint x="490" y="870" />
              <mxPoint x="390" y="870" />
            </Array>
          </mxGeometry>
        </mxCell>
        <mxCell id="6ZqL_29RhyfrlqsAm3sB-22" value="B" style="shape=document;whiteSpace=wrap;html=1;boundedLbl=1;" parent="1" vertex="1">
          <mxGeometry x="430" y="770" width="120" height="80" as="geometry" />
        </mxCell>
        <mxCell id="6ZqL_29RhyfrlqsAm3sB-27" value="끝" style="ellipse;whiteSpace=wrap;html=1;" parent="1" vertex="1">
          <mxGeometry x="330" y="920" width="120" height="80" as="geometry" />
        </mxCell>
      </root>
    </mxGraphModel>
  </diagram>
</mxfile>
